<?xml version="1.0" standalone="no"?>
<!DOCTYPE svg PUBLIC "-//W3C//DTD SVG 20010904//EN"
 "http://www.w3.org/TR/2001/REC-SVG-20010904/DTD/svg10.dtd">
<svg version="1.0" xmlns="http://www.w3.org/2000/svg"
 width="2000.000000pt" height="2000.000000pt" viewBox="0 0 2000.000000 2000.000000"
 preserveAspectRatio="xMidYMid meet">

<g transform="translate(0.000000,2000.000000) scale(0.100000,-0.100000)"
fill="#000000" stroke="none">
<path d="M3690 16793 c-85 -15 -155 -48 -212 -101 l-27 -24 -30 34 c-94 107
-362 63 -518 -85 -29 -27 -63 -65 -74 -84 -17 -28 -26 -33 -58 -33 -112 0
-278 -75 -366 -165 -106 -107 -141 -213 -132 -400 8 -162 49 -305 133 -465 19
-36 46 -105 60 -153 22 -76 28 -87 44 -82 38 12 92 -7 141 -51 28 -24 57 -44
65 -44 82 0 124 146 131 460 4 164 1 213 -16 309 -19 115 -19 115 0 143 74
104 312 208 445 195 75 -8 126 -38 229 -136 50 -48 113 -102 138 -120 112 -77
253 -121 387 -121 57 0 70 -3 74 -17 3 -10 12 -90 21 -178 25 -251 22 -245 61
-136 34 94 62 154 123 268 41 75 52 167 28 225 -15 35 -14 38 9 70 70 94 59
233 -23 309 -54 51 -186 74 -254 45 -13 -6 -17 2 -22 45 -7 56 -46 122 -124
209 -58 65 -152 98 -233 83z"/>
<path d="M7930 16090 c-41 -4 -104 -13 -140 -20 -36 -7 -75 -13 -87 -14 -13 0
-23 -4 -23 -8 0 -5 -7 -8 -16 -8 -30 0 -197 -61 -301 -110 -88 -42 -242 -137
-305 -188 -141 -115 -248 -232 -343 -374 -308 -458 -368 -1002 -171 -1536 28
-75 153 -314 169 -320 17 -8 5 -30 -20 -37 -16 -3 -55 -17 -88 -29 -33 -13
-125 -47 -204 -75 l-145 -52 -17 23 c-20 26 -132 250 -144 286 -3 13 -10 22
-13 20 -4 -2 -59 -37 -122 -79 -63 -42 -169 -111 -235 -154 -66 -43 -176 -115
-245 -160 -231 -151 -301 -195 -311 -195 -6 0 -79 35 -162 79 -84 43 -260 134
-392 201 -256 132 -255 131 -470 315 -77 66 -162 138 -190 160 -27 22 -72 61
-99 86 l-49 46 -161 7 c-89 3 -334 7 -545 7 -367 2 -385 1 -398 -17 -20 -27
-149 -283 -166 -330 -8 -21 -31 -82 -52 -134 -77 -202 -123 -453 -110 -610 11
-145 54 -341 221 -1020 53 -212 106 -437 120 -500 24 -112 38 -166 169 -670
35 -135 84 -324 109 -420 25 -96 64 -247 88 -335 l42 -160 6 -490 5 -490 68 0
68 0 55 -173 c119 -378 170 -458 497 -789 l239 -241 53 -169 53 -168 -58
-1053 -58 -1052 -38 -53 c-114 -158 -278 -381 -419 -572 -45 -60 -124 -168
-176 -239 -52 -70 -128 -174 -169 -230 -95 -128 -387 -526 -466 -632 -32 -45
-140 -191 -239 -325 l-179 -242 33 -26 c18 -14 45 -35 59 -47 l25 -21 -104
-144 c-57 -79 -111 -153 -120 -164 -107 -126 -109 -129 -91 -147 9 -9 80 -68
158 -130 121 -98 572 -464 804 -653 268 -218 339 -275 343 -275 7 0 -25 89
-57 163 -14 32 -26 60 -26 62 0 3 24 5 53 5 l54 0 0 -189 0 -190 -36 -4 c-20
-2 7 -4 59 -3 52 0 73 1 45 3 l-50 4 3 194 3 195 23 0 c13 0 44 3 70 6 l46 7
1 -189 c0 -104 4 -198 8 -209 13 -31 19 54 17 237 l-1 156 35 6 c86 14 79 32
82 -199 3 -175 1 -205 -12 -209 -8 -2 63 -4 158 -5 l172 -1 2 58 c1 31 2 131
2 222 l1 165 71 3 71 3 -5 -139 c-2 -77 -1 -180 3 -228 8 -83 9 -86 17 -49 5
22 7 124 6 228 -3 166 -1 187 13 187 9 0 36 3 60 6 l44 6 -2 -231 -2 -231
1152 3 c634 1 1071 5 972 8 -99 4 -612 6 -1140 5 l-960 -1 0 222 0 223 65 0
c36 0 72 5 80 10 13 8 15 44 15 225 l0 216 50 -5 c28 -2 62 -5 77 -5 l27 -1
-6 -344 -6 -344 89 -6 c49 -4 343 -20 654 -36 311 -17 695 -37 853 -46 158 -8
293 -14 299 -12 6 2 -6 15 -28 28 -76 46 -320 175 -394 209 -41 19 -79 40 -83
48 -5 7 -13 11 -19 7 -12 -7 -178 65 -178 77 0 5 -9 9 -19 9 -38 0 -178 61
-201 87 -23 27 -24 38 -6 193 2 14 4 36 4 49 2 23 3 23 85 17 45 -4 88 -2 96
2 7 5 17 31 22 57 11 56 128 870 164 1140 30 219 44 322 50 350 4 20 13 20
432 23 307 2 461 7 543 18 314 40 558 113 815 242 104 52 276 159 320 199 11
10 37 31 59 47 114 85 308 311 384 446 55 98 104 221 135 339 28 107 30 129
31 291 1 236 -23 348 -120 558 -178 383 -564 711 -1049 890 -279 103 -536 150
-855 158 -107 2 -267 9 -355 16 -335 24 -719 -29 -1018 -142 -240 -90 -422
-194 -598 -341 l-47 -39 -20 88 c-90 379 -118 718 -92 1118 30 449 103 829
234 1210 l45 130 -25 260 c-101 1070 -117 1383 -80 1549 37 164 115 254 251
290 32 8 85 15 116 15 113 0 319 -86 649 -270 52 -30 124 -70 160 -90 121 -67
442 -265 760 -468 30 -19 119 -78 198 -131 78 -53 161 -106 183 -119 l39 -23
43 30 c126 86 187 217 171 363 -12 107 12 90 -294 213 -174 69 -379 148 -455
174 -33 11 -121 41 -195 66 -74 26 -157 51 -185 55 -27 5 -66 13 -85 19 -199
57 -479 122 -665 155 -66 12 -125 24 -131 28 -14 9 -41 98 -124 398 -34 124
-72 261 -85 305 -57 200 -65 232 -67 264 l-3 34 92 18 c262 50 540 139 1093
349 118 45 287 112 375 150 204 86 270 112 375 146 82 26 370 144 515 209 39
18 103 47 144 65 l74 32 93 -11 c397 -47 815 58 1147 288 84 59 236 197 304
276 210 247 359 600 394 933 14 135 4 332 -26 484 -21 111 -88 305 -140 404
-24 48 -42 92 -38 98 3 6 3 8 -2 4 -4 -4 -40 41 -79 100 -95 143 -283 332
-421 424 -212 141 -435 231 -675 273 -99 17 -335 26 -430 15z m337 -155 c409
-54 765 -251 1026 -570 89 -109 110 -140 157 -231 21 -42 43 -81 48 -88 5 -6
14 -24 20 -41 6 -16 24 -66 41 -110 105 -274 129 -609 66 -925 -15 -74 -28
-144 -29 -155 -2 -11 -10 -37 -19 -59 -10 -21 -17 -42 -17 -46 0 -4 -16 -31
-35 -60 -19 -29 -35 -55 -35 -59 0 -5 -33 -52 -73 -107 -261 -354 -629 -577
-1072 -650 -108 -18 -346 -24 -436 -11 l-56 8 -37 82 c-71 153 -296 682 -296
694 0 1 11 -2 24 -8 14 -7 40 -9 60 -5 28 5 36 12 36 29 0 42 49 158 92 219
l19 28 -55 35 c-114 73 -196 147 -273 248 -21 26 -42 47 -48 47 -5 0 -62 -52
-125 -115 l-115 -115 20 -36 c20 -38 130 -156 179 -192 20 -15 24 -23 15 -27
-197 -73 -565 -205 -574 -205 -6 0 -30 29 -52 63 -104 162 -184 363 -225 568
-29 148 -32 422 -5 569 19 104 63 254 81 274 6 6 22 32 35 56 20 39 108 175
177 274 30 43 208 223 270 273 339 274 789 403 1211 348z m-1594 -9299 c236
-45 528 -154 663 -247 23 -16 48 -29 55 -29 14 0 118 -73 214 -149 101 -82
201 -186 303 -316 65 -83 160 -272 206 -407 106 -318 79 -713 -67 -966 -258
-447 -678 -773 -1207 -935 -223 -69 -363 -87 -669 -87 -250 0 -367 15 -566 70
-539 152 -964 480 -1180 910 -51 103 -78 178 -102 290 -26 120 -25 420 1 540
68 316 215 572 462 810 98 94 272 223 291 215 7 -2 12 1 10 7 -4 21 277 154
436 206 277 92 483 122 797 118 183 -3 235 -7 353 -30z m1137 -2493 c-37 -44
-109 -114 -160 -157 -19 -16 15 20 75 82 61 61 112 111 114 111 1 1 -11 -16
-29 -36z m-216 -204 c-10 -11 -28 -25 -39 -31 -11 -6 -4 4 15 20 41 36 51 41
24 11z m-64 -46 c0 -5 -17 -18 -38 -31 l-37 -23 35 30 c38 33 40 34 40 24z
m-124 -88 c-11 -8 -25 -15 -30 -15 -6 1 0 7 14 15 32 19 40 18 16 0z m-2710
-372 c-6 -164 -27 -572 -42 -855 l-7 -118 -464 0 c-303 0 -463 3 -463 10 0 6
42 58 93 118 50 59 128 150 172 202 44 52 143 167 220 255 77 88 169 196 205
239 115 140 279 326 288 326 3 0 2 -80 -2 -177z m-2036 -983 c27 -27 27 -85 1
-100 -72 -38 -148 33 -100 93 25 33 70 36 99 7z m1796 -215 c0 -146 -3 -215
-10 -216 -17 -2 -49 -2 -76 -1 l-25 2 -1 209 -1 210 36 4 c86 9 77 34 77 -208z
m169 197 c-3 -8 -5 -106 -5 -218 l0 -204 -70 0 -70 0 0 220 0 220 75 -2 c58
-2 74 -6 70 -16z m-906 -202 l0 -210 -72 0 -72 0 3 142 4 142 51 61 c54 62 67
75 79 75 5 0 8 -94 7 -210z m136 0 l0 -210 -57 0 -58 0 0 210 0 210 58 0 57 0
0 -210z m165 0 l0 -210 -72 0 -73 0 0 210 0 210 73 0 72 0 0 -210z m136 0 l-1
-210 -57 0 -56 0 -1 210 -1 210 58 0 58 0 0 -210z m164 0 l0 -210 -70 0 -70 0
0 210 0 210 70 0 70 0 0 -210z m-1092 13 c18 -16 21 -32 24 -121 l3 -102 -57
0 -58 0 0 88 c0 81 2 91 26 120 31 37 35 38 62 15z m324 -120 l4 -103 -58 0
-58 0 0 56 c0 53 3 60 53 121 38 47 53 60 54 47 1 -11 4 -65 5 -121z m-196 31
c62 -44 64 -46 64 -90 l0 -44 -75 0 -75 0 4 33 c2 17 4 58 5 90 0 31 4 57 7
57 4 0 35 -20 70 -46z m-240 -73 c4 -59 3 -61 -19 -61 -13 0 -32 9 -43 21 -10
11 -14 20 -9 19 21 -5 27 1 16 14 -10 12 -7 21 15 45 15 17 29 29 31 27 2 -2
6 -31 9 -65z m1309 -319 l0 -207 -70 0 -70 0 0 202 0 203 30 5 c48 8 89 11
100 8 6 -2 10 -81 10 -211z m136 3 l1 -210 -56 -3 -56 -3 0 209 c0 115 3 212
7 216 4 4 29 6 55 4 l49 -3 0 -210z m-299 -5 l3 -200 -64 0 c-61 0 -63 1 -57
23 3 12 6 99 6 194 0 191 -4 179 72 182 l37 1 3 -200z m-142 182 c0 -4 1 -92
3 -195 l2 -187 -70 0 -70 0 0 190 0 189 50 4 c28 2 58 4 68 5 9 1 17 -2 17 -6z
m-160 -197 l0 -185 -57 0 -58 0 3 172 c2 95 5 178 6 184 2 6 27 11 55 13 l51
2 0 -186z m-138 -5 l3 -180 -72 0 -72 0 0 174 c0 198 -8 182 91 185 l47 1 3
-180z m-602 101 c0 -69 -3 -69 -37 -6 -9 17 -17 40 -19 52 -2 18 3 21 27 21
l29 -1 0 -66z m137 -108 c0 -110 -4 -172 -11 -170 -14 5 -93 151 -88 165 2 7
0 12 -5 12 -7 0 -11 137 -5 161 1 3 26 6 56 6 l54 0 -1 -174z m165 1 l3 -174
-72 0 -73 0 0 173 0 172 70 1 69 1 3 -173z m138 1 l0 -175 -59 0 -60 0 3 53
c2 28 4 107 5 175 l1 122 55 0 55 0 0 -175z m1466 9 c60 -28 55 -101 -9 -132
-23 -11 -32 -11 -62 4 -59 28 -57 100 5 131 31 16 26 16 66 -3z m-1024 -442
l3 -212 -60 0 -60 0 0 215 0 214 50 3 c28 2 53 1 57 -2 4 -3 9 -101 10 -218z
m-140 -30 l3 -182 -72 0 -72 0 1 208 1 209 61 2 c33 1 63 5 66 8 7 7 9 -33 12
-245z"/>
<path d="M8381 15408 c-23 -62 -45 -119 -50 -127 -7 -11 -22 -12 -85 -2 -162
24 -322 11 -416 -32 -141 -66 -226 -161 -276 -309 -23 -69 -26 -93 -22 -167 3
-74 9 -98 40 -163 41 -87 147 -202 263 -287 103 -74 97 -67 80 -104 -8 -17
-30 -75 -50 -127 -20 -52 -41 -105 -47 -117 -23 -46 1 -31 80 51 59 62 84 96
93 128 23 78 47 88 95 37 26 -28 29 -36 29 -101 0 -68 0 -69 13 -36 18 44 19
44 43 22 45 -40 80 -95 87 -134 l7 -40 50 45 c57 52 142 114 233 169 34 20 62
42 62 47 0 20 -148 163 -232 225 -48 35 -88 68 -88 72 0 8 35 102 55 147 7 17
32 78 56 138 23 59 46 107 50 107 19 0 172 -121 238 -188 l74 -75 20 24 c10
13 61 68 113 121 52 54 94 102 94 108 0 5 -37 47 -82 93 -84 84 -189 162 -285
211 -29 14 -53 28 -53 30 0 2 22 59 50 127 27 68 46 127 42 131 -9 9 -214 88
-228 88 -6 0 -30 -51 -53 -112z m-202 -467 c11 -7 7 -27 -24 -107 -20 -55 -47
-125 -59 -156 -11 -32 -26 -58 -32 -58 -20 0 -102 96 -109 129 -18 82 35 163
120 186 60 16 85 18 104 6z"/>
<path d="M8585 13933 c-44 -42 -72 -73 -62 -70 10 4 49 16 87 28 l70 21 0 49
c0 27 -3 49 -7 49 -5 -1 -44 -35 -88 -77z"/>
<path d="M5365 5823 c-35 -9 -68 -37 -81 -70 -24 -57 -15 -69 15 -21 27 42 66
78 101 91 13 5 13 5 0 5 -8 0 -24 -3 -35 -5z"/>
<path d="M5625 5789 c19 -22 33 -45 29 -51 -4 -7 -12 -1 -21 16 -7 14 -20 26
-28 26 -8 0 -15 4 -15 9 0 17 -70 33 -113 27 -77 -12 -138 -63 -175 -143 -14
-32 -17 -75 -18 -283 -1 -135 -5 -403 -10 -597 -8 -384 -7 -395 48 -434 32
-23 71 -30 163 -29 110 1 125 5 161 41 28 29 35 45 44 104 30 196 31 222 20
515 -6 162 -13 387 -16 500 -6 251 -8 262 -44 296 -16 15 -27 31 -25 34 2 3
-5 7 -16 7 -17 2 -15 -4 16 -38z"/>
<path d="M6436 5796 c-20 -18 -36 -40 -36 -47 0 -8 -2 -308 -3 -668 -4 -727
-6 -695 64 -733 27 -15 54 -18 139 -17 126 2 167 18 196 76 18 36 19 67 16
677 -3 707 -1 685 -67 726 -28 17 -49 20 -153 20 l-121 0 -35 -34z"/>
<path d="M3099 15782 c-65 -34 -80 -67 -27 -59 18 2 71 10 118 17 122 17 130
19 130 31 0 17 -66 39 -119 39 -34 0 -65 -8 -102 -28z"/>
<path d="M3810 15728 c-46 -24 -51 -44 -10 -41 14 1 73 5 133 9 59 4 107 11
107 16 0 17 -70 38 -128 38 -40 0 -71 -7 -102 -22z"/>
<path d="M3845 15582 c-36 -22 -60 -50 -52 -59 4 -3 26 2 49 13 45 20 107 24
176 11 52 -11 56 5 10 33 -44 27 -141 27 -183 2z"/>
<path d="M3224 15549 c-54 -7 -99 -30 -115 -60 -12 -24 -7 -24 66 2 59 21 94
21 178 3 59 -13 13 38 -49 54 -16 5 -52 5 -80 1z"/>
<path d="M3575 15538 c15 -48 79 -209 137 -345 33 -78 58 -148 55 -156 -3 -8
-35 -19 -79 -27 -86 -15 -75 -25 18 -15 64 7 94 23 94 52 0 34 -210 513 -225
513 -3 0 -3 -10 0 -22z"/>
<path d="M3940 15393 c-22 -8 -40 -34 -40 -58 0 -48 70 -73 103 -37 43 48 -3
117 -63 95z"/>
<path d="M3297 15348 c-28 -22 -32 -63 -8 -87 42 -42 101 -15 101 47 0 46 -54
69 -93 40z"/>
<path d="M3395 14928 c17 -57 61 -113 107 -136 67 -33 80 -23 19 15 -33 21
-63 51 -86 87 -38 60 -50 70 -40 34z"/>
<path d="M10670 11943 c-692 -36 -1249 -147 -1701 -337 l-31 -13 94 -55 c357
-211 338 -201 364 -189 79 36 458 114 756 156 417 58 755 79 1166 72 489 -9
911 -67 1377 -192 156 -42 145 -41 110 -10 -55 50 -89 80 -185 160 -52 44
-143 122 -203 173 -60 51 -118 99 -130 106 -38 24 -363 74 -652 100 -311 29
-733 42 -965 29z"/>
<path d="M10271 11045 c-103 -29 -263 -127 -396 -243 -105 -91 -336 -326 -430
-436 -27 -33 -64 -75 -81 -95 -92 -109 -393 -507 -478 -633 -22 -32 -43 -55
-48 -52 -5 3 -8 -2 -6 -12 2 -12 -2 -18 -10 -16 -8 1 -11 -2 -8 -7 7 -10 -37
-80 -57 -93 -7 -4 -8 -8 -4 -8 5 0 -7 -22 -26 -49 -20 -27 -33 -52 -30 -55 3
-3 56 66 117 153 254 364 511 695 528 684 7 -3 8 -1 4 6 -17 27 481 560 508
544 5 -4 6 -1 3 4 -6 9 54 61 176 151 75 55 217 123 287 138 59 12 75 12 126
-2 231 -59 495 -426 780 -1087 35 -81 64 -150 64 -153 0 -4 11 -32 24 -63 39
-89 83 -210 163 -441 40 -118 75 -220 78 -227 5 -14 143 58 215 113 104 79
205 239 232 365 l11 55 -118 159 c-183 247 -200 270 -206 275 -4 4 -116 149
-184 239 -69 91 -282 350 -375 455 -131 148 -275 251 -422 300 -110 38 -353
54 -437 31z"/>
<path d="M6227 7760 c-77 -30 -116 -66 -149 -137 -26 -54 -30 -76 -29 -135 2
-121 54 -203 163 -260 63 -32 185 -32 248 1 196 102 224 353 55 493 -68 57
-197 74 -288 38z"/>
<path d="M9249 7686 c-131 -46 -219 -163 -242 -317 -10 -68 -9 -81 4 -95 14
-14 19 -8 48 58 64 142 132 217 226 248 110 36 233 -50 302 -212 62 -145 83
-161 83 -66 0 162 -88 315 -214 374 -58 27 -148 31 -207 10z"/>
<path d="M16250 3551 l25 -6 0 -237 0 -236 -105 -7 c-113 -7 -153 -12 -104
-14 l30 -1 -4 -217 c-2 -130 0 -228 6 -243 10 -25 10 -24 17 11 4 20 5 130 3
243 l-3 206 62 0 c34 0 64 -4 67 -9 3 -5 169 -9 370 -10 200 -1 376 -6 392
-11 27 -8 26 -8 -16 -11 -25 -2 -56 -4 -70 -5 -14 -1 -115 -3 -225 -4 -110 -1
-185 -5 -167 -9 l34 -6 2 -207 2 -208 -64 0 -65 0 4 153 c4 204 1 277 -11 277
-6 0 -10 -78 -10 -215 l0 -215 -78 0 -77 0 3 175 c4 185 -2 275 -19 258 -6 -6
-9 -92 -7 -222 l3 -211 -25 -1 c-14 -1 2 -8 35 -15 l60 -15 0 -223 0 -224
-102 -7 c-98 -7 -101 -8 -106 -32 -8 -44 -7 -427 2 -448 16 -37 23 64 19 269
l-3 196 65 0 65 0 -3 -238 c-3 -270 -6 -259 74 -268 l49 -6 0 -234 0 -234
-370 -3 c-252 -1 -174 -3 246 -5 581 -2 616 -1 616 16 -1 9 0 101 1 205 l2
187 44 0 c24 0 58 -3 75 -6 l31 -7 0 -186 c0 -102 4 -192 9 -199 13 -21 21 65
21 234 l0 154 60 0 60 0 0 -189 c0 -116 4 -192 10 -196 6 -4 10 14 10 47 0 29
1 117 2 196 l1 143 75 -3 75 -3 -2 -93 c-3 -127 10 -307 20 -290 5 7 9 99 9
204 l0 191 60 2 60 2 1 -176 c1 -96 3 -179 4 -185 1 -5 4 -20 5 -32 7 -64 19
76 19 223 l1 166 46 7 c26 3 60 6 75 6 l29 0 0 -199 c0 -110 4 -202 9 -205 13
-9 24 200 16 314 l-7 100 50 0 c28 0 58 3 66 6 15 6 16 -4 10 -88 -8 -115 4
-357 17 -337 5 8 9 107 9 220 l0 206 38 7 c20 3 55 6 77 6 l40 0 -3 -187 c-3
-196 2 -268 19 -242 5 8 9 110 9 227 l0 212 44 0 c24 0 51 3 60 6 14 5 16 -18
16 -217 0 -123 4 -230 9 -238 14 -22 19 49 17 260 l-1 197 50 6 c28 3 61 6 75
6 l25 0 2 -226 c1 -210 4 -246 19 -231 3 3 7 108 7 234 l2 228 63 3 62 4 -6
-126 c-7 -147 3 -363 17 -349 6 6 9 107 7 241 l-3 232 80 0 80 0 -3 -217 c-2
-121 1 -229 6 -243 16 -41 25 109 20 297 l-5 163 66 0 66 0 -3 -232 c-1 -127
1 -235 6 -240 12 -12 23 245 15 370 l-6 102 49 2 c52 2 -135 14 -246 17 l-65
1 -1 239 -1 239 33 -5 c18 -3 55 -2 81 2 l48 8 -33 7 c-18 4 -41 6 -50 3 -16
-4 -17 16 -17 231 l0 236 52 0 c28 0 57 2 65 5 11 4 12 -36 10 -221 -3 -226 3
-298 19 -219 4 22 7 132 5 243 l-3 204 29 -4 c16 -3 31 -1 34 4 3 4 -37 9 -88
10 -51 1 -115 3 -142 4 l-50 1 0 231 c-1 185 1 233 12 237 8 3 41 6 75 6 65 1
62 4 -15 14 l-47 6 0 233 1 233 45 7 c92 12 84 29 83 -176 -2 -272 -1 -298 10
-298 6 0 10 86 10 239 l0 240 48 4 c26 2 -533 4 -1243 4 -709 0 -1279 -2
-1265 -6z m154 -7 c9 -3 16 -17 16 -31 0 -13 4 -21 10 -18 6 3 10 15 10 26 0
17 7 19 80 19 76 0 80 -1 80 -22 0 -18 2 -20 9 -8 6 8 7 18 5 22 -3 4 27 8 66
8 59 0 71 -3 67 -15 -4 -8 -2 -17 3 -20 6 -4 10 3 10 14 0 19 6 21 80 21 73 0
80 -2 80 -20 0 -11 5 -20 10 -20 6 0 10 9 10 20 0 18 7 20 65 20 58 0 65 -2
65 -20 0 -11 5 -20 10 -20 6 0 10 9 10 20 0 18 7 20 80 20 73 0 80 -2 80 -20
0 -11 4 -20 9 -20 5 0 7 9 4 20 -5 19 0 20 61 20 l66 0 0 -235 0 -235 -65 0
-64 0 4 33 c3 25 7 307 5 365 0 6 -7 12 -16 12 -14 0 -15 -23 -12 -205 l3
-205 -77 0 -78 0 0 200 c0 170 -2 200 -15 200 -12 0 -14 -28 -10 -200 l5 -200
-64 0 -63 0 -1 196 c0 108 -3 199 -6 202 -16 15 -20 -25 -18 -203 l2 -195 -78
0 -77 0 0 197 c0 153 -3 197 -13 201 -11 3 -13 -34 -10 -197 l3 -201 -65 0
-65 0 3 197 c2 120 -1 200 -7 206 -18 18 -23 -41 -19 -223 l4 -180 -79 0 -80
0 7 119 c8 128 -1 291 -15 291 -5 0 -9 -92 -9 -205 l0 -205 -62 0 -63 0 0 240
0 240 46 0 c26 0 54 -3 63 -6z m1166 -29 c0 -14 5 -25 10 -25 6 0 10 11 10 25
0 24 2 25 65 25 63 0 65 -1 65 -25 0 -14 5 -25 10 -25 6 0 8 11 6 25 -5 25 -5
25 77 25 l82 0 0 -235 0 -235 -80 0 -80 0 3 201 c3 162 1 200 -10 197 -10 -4
-13 -48 -13 -201 l0 -197 -62 0 -63 0 1 196 c0 181 -3 216 -16 202 -3 -2 -5
-93 -6 -201 l-1 -197 -77 0 -76 0 0 235 0 235 78 0 c76 0 77 0 77 -25z m468
-210 l1 -235 -62 0 -62 0 0 235 0 235 61 0 62 0 0 -235z m177 0 l0 -235 -76 0
-76 0 -1 235 -2 235 78 0 77 0 0 -235z m150 0 l0 -235 -65 0 -65 0 0 235 0
235 65 0 65 0 0 -235z m175 -3 l0 -238 -32 2 c-18 1 -53 3 -78 3 l-45 1 0 235
0 235 78 0 77 0 0 -238z m-30 -487 c0 -126 -2 -230 -3 -231 -1 -1 -28 -4 -61
-5 l-58 -3 -2 228 -1 227 25 5 c14 3 30 7 35 9 6 2 23 3 38 2 l29 -2 -2 -230z
m-146 -13 c-1 -159 -5 -227 -13 -226 -6 1 -40 2 -76 3 l-65 1 0 219 c0 250 -9
228 95 230 l60 1 -1 -228z m-179 -2 l0 -220 -63 0 -62 0 1 214 0 215 42 4 c23
2 51 4 62 5 19 2 20 -4 20 -218z m-149 -5 l1 -215 -79 0 -78 0 4 33 c3 17 5
111 5 208 l1 176 62 2 c35 1 65 4 67 7 15 14 17 -17 17 -211z m-176 0 c-1
-107 1 -199 5 -205 4 -6 -19 -10 -65 -10 -62 0 -71 2 -66 16 3 9 6 98 6 199
l0 184 38 4 c20 2 47 4 60 5 l23 2 -1 -195z m-1128 166 c4 -3 8 -92 8 -196 l2
-190 -76 -1 -76 -1 0 204 0 204 68 -7 c37 -4 70 -9 74 -13z m978 -150 c0 -93
3 -183 6 -200 l7 -31 -81 0 -80 0 2 193 2 192 60 6 c32 3 65 6 72 7 9 2 12
-38 12 -167z m-820 -42 l0 -189 -62 0 -63 0 3 182 c2 101 4 188 6 193 2 6 28
9 60 7 l56 -4 0 -189z m649 1 l2 -190 -64 0 -64 0 3 181 c2 99 7 185 10 190 3
5 29 9 58 9 l53 0 2 -190z m-479 158 c0 -13 2 -96 4 -185 l4 -163 -77 0 -77 0
2 183 c1 100 3 183 3 185 1 1 33 2 71 2 66 0 70 -1 70 -22z m151 -130 c0 -84
2 -168 5 -185 l4 -33 -65 0 -65 0 0 183 0 184 60 2 60 2 1 -153z m179 -33 l0
-185 -81 0 c-70 0 -80 2 -75 16 3 9 6 92 6 185 l0 169 75 0 75 0 0 -185z
m1017 -445 l0 -230 -62 0 -62 0 1 225 c0 253 -7 231 82 234 l41 1 0 -230z
m178 -6 c0 -230 0 -235 -20 -230 -11 3 -46 6 -77 6 l-58 0 0 230 0 230 78 0
77 0 0 -236z m-325 1 l0 -225 -77 0 -78 0 0 220 0 219 30 4 c17 2 51 5 78 5
l47 2 0 -225z m-1817 199 c15 -5 17 -24 17 -215 l0 -209 -60 0 -60 0 0 220 0
221 43 -6 c23 -3 50 -8 60 -11z m1638 -204 l1 -215 -63 -3 -64 -3 3 215 3 215
57 3 c31 2 58 3 59 3 1 0 3 -97 4 -215z m-146 -10 l0 -210 -76 0 -76 0 1 205
1 204 45 4 c25 2 59 4 75 5 l30 2 0 -210z m-1358 194 l60 -7 0 -198 1 -199
-77 0 -76 0 0 205 c0 181 2 205 16 205 9 0 43 -3 76 -6z m1183 -199 l0 -205
-63 0 -62 0 2 198 2 197 53 6 c29 3 56 6 61 7 4 1 7 -90 7 -203z m-985 174 c4
-6 8 -93 9 -195 l1 -184 -61 0 -62 0 2 195 1 195 52 0 c28 0 55 -5 58 -11z
m835 -183 l0 -196 -75 0 -75 0 0 193 0 192 75 3 75 3 0 -195z m-654 171 c2 -1
4 -83 5 -182 l2 -180 -77 -3 -76 -3 0 192 0 192 72 -7 c39 -3 73 -8 74 -9z
m474 -139 c0 -84 3 -170 6 -190 l7 -38 -67 0 -66 0 0 188 0 189 60 2 60 2 0
-153z m-320 -43 l0 -185 -59 0 c-33 0 -61 4 -63 10 -1 5 -2 89 0 185 l3 175
59 0 60 0 0 -185z m176 -2 l3 -183 -81 0 -80 0 6 53 c3 28 6 112 6 185 l0 133
72 -3 72 -3 2 -182z m-899 -213 l42 0 -1 -234 -2 -234 -69 -1 c-37 0 -71 -2
-75 -5 -4 -2 -7 106 -7 241 l0 245 35 -6 c19 -3 54 -6 77 -6z m2133 -242 l0
-228 -62 0 -63 0 0 230 0 230 47 0 c26 0 50 5 54 11 18 29 24 -33 24 -243z
m-1972 213 l23 -6 2 -218 2 -217 -62 0 -63 0 0 230 0 231 38 -7 c20 -4 47 -10
60 -13z m1822 -200 c0 -115 3 -217 6 -226 6 -15 -2 -16 -75 -13 l-83 3 2 215
c0 156 4 216 13 222 7 4 40 8 75 8 l62 0 0 -209z m-175 -19 l-1 -217 -59 0
-60 0 -3 212 -2 212 37 4 c21 2 49 4 63 5 l25 2 0 -218z m-1465 193 c13 -2 16
-35 20 -208 l5 -207 -84 0 c-72 0 -82 2 -77 16 3 9 6 106 6 216 l0 199 58 -7
c31 -4 64 -8 72 -9z m1318 -197 l-3 -213 -60 0 c-98 -2 -90 -20 -88 208 l3
202 57 6 c32 3 66 6 76 7 16 2 17 -12 15 -210z m-1192 182 l44 0 -2 -197 -3
-198 -60 -3 -60 -3 2 198 c2 109 3 202 3 207 0 4 7 5 16 2 9 -3 36 -6 60 -6z
m1012 -192 l-3 -203 -60 0 c-42 0 -60 4 -59 13 1 6 2 95 3 196 l1 185 28 4
c15 2 42 5 60 6 l32 1 -2 -202z m-148 23 c0 -93 3 -182 6 -198 l6 -29 -79 1
-78 0 -3 192 -2 192 57 4 c32 2 66 4 76 5 16 2 17 -12 17 -167z m-649 14 c0
-77 1 -162 2 -190 l2 -50 -75 0 -75 0 0 193 0 193 72 -3 73 -2 1 -141z m464
137 c6 -4 10 -80 10 -192 l0 -185 -50 -1 c-27 0 -55 1 -61 3 -8 3 -11 60 -10
186 l1 182 45 6 c25 3 47 6 50 7 3 1 10 -2 15 -6z m-313 -177 c0 -96 1 -181 2
-187 1 -9 -19 -13 -61 -15 l-63 -2 0 190 0 189 60 0 60 0 2 -175z m178 -10 c0
-102 -3 -186 -7 -186 -5 -1 -41 -2 -81 -3 l-74 -1 6 29 c3 15 6 100 6 187 l0
159 75 0 75 0 0 -185z m-931 -246 l50 -10 3 -220 3 -219 -65 0 -65 0 3 223 c1
123 2 226 2 230 0 9 10 9 69 -4z m201 -29 l25 0 0 -210 1 -210 -76 0 -76 0 1
216 0 216 50 -6 c28 -3 61 -6 75 -6z m147 -18 c22 -7 22 -10 25 -204 l3 -198
-62 0 -63 0 0 205 0 205 38 -1 c20 -1 47 -4 59 -7z"/>
<path d="M6842 3212 c7 -15 17 -34 23 -42 15 -19 84 -166 155 -330 18 -41 50
-112 71 -158 22 -46 39 -85 39 -87 0 -2 18 -43 41 -92 22 -48 50 -108 61 -133
63 -141 104 -233 134 -298 19 -40 34 -77 34 -82 0 -6 5 -10 11 -10 5 0 8 -4 5
-9 -3 -4 1 -17 9 -27 8 -10 15 -27 15 -36 0 -10 5 -18 10 -18 6 0 10 -7 10
-15 0 -8 22 -61 49 -117 65 -137 111 -238 111 -244 0 -2 16 -39 36 -81 19 -43
42 -94 51 -113 8 -19 36 -80 61 -135 l47 -100 823 -3 c565 -2 822 0 822 8 0 7
-104 10 -319 10 l-319 0 -6 173 c-14 362 -26 767 -26 890 0 115 2 127 18 127
14 0 113 -25 186 -46 12 -4 17 -2 14 6 -2 7 -46 23 -98 37 -296 76 -755 237
-1075 376 -130 57 -491 241 -505 258 -3 4 -28 18 -57 33 -46 23 -155 93 -370
237 -68 45 -71 46 -61 21z m1607 -2034 l42 -78 -85 0 c-47 0 -86 2 -86 5 0 2
11 24 24 47 13 24 29 60 36 81 7 22 16 35 20 30 4 -4 26 -43 49 -85z"/>
<path d="M14270 2709 c-41 -16 -76 -65 -107 -147 -27 -73 -28 -85 -27 -237 1
-151 3 -166 32 -255 28 -85 84 -188 112 -205 6 -4 11 -87 12 -218 l3 -212 2
205 c3 198 4 205 27 230 12 14 39 52 59 86 94 158 133 297 124 443 -9 140 -52
229 -141 289 -52 34 -58 36 -96 21z"/>
<path d="M13905 2655 c-195 -83 -506 -194 -845 -300 -255 -80 -721 -185 -1110
-249 -194 -32 -303 -45 -610 -76 -92 -9 -91 -9 45 -5 77 2 248 18 379 35 132
16 243 30 247 30 4 0 14 -12 22 -27 8 -16 31 -59 51 -98 20 -38 48 -97 63
-130 14 -33 99 -208 189 -390 90 -181 162 -335 160 -342 -4 -9 -239 -10 -999
-6 -773 5 -996 3 -1001 -6 -6 -9 287 -12 1343 -10 743 1 1351 4 1351 8 0 3 73
3 162 0 90 -4 415 -6 723 -6 308 1 482 3 386 4 l-174 3 6 38 c5 25 3 32 -3 22
-5 -8 -10 -25 -10 -37 l0 -23 -374 0 c-206 0 -377 4 -380 8 -3 5 -10 159 -15
343 -6 184 -13 393 -16 464 -2 72 -8 227 -11 345 l-6 215 261 104 c144 57 264
108 267 113 10 16 -21 7 -101 -27z m-790 -1427 c4 -11 20 -43 37 -71 16 -27
28 -51 26 -52 -8 -8 -143 -7 -145 1 -3 13 59 144 68 144 4 0 11 -10 14 -22z"/>
<path d="M1292 2604 c-41 -50 -56 -129 -49 -257 8 -153 58 -291 148 -414 35
-46 137 -139 144 -131 9 9 48 120 66 186 30 111 29 300 -1 396 -36 115 -92
185 -183 230 -69 35 -90 33 -125 -10z"/>
<path d="M10520 2011 c0 -8 77 -11 237 -11 130 0 234 3 231 6 -11 11 -468 16
-468 5z"/>
<path d="M11063 2013 c15 -2 39 -2 55 0 15 2 2 4 -28 4 -30 0 -43 -2 -27 -4z"/>
<path d="M2272 2003 l47 -4 -1 -224 -1 -225 -31 2 c-17 1 -76 0 -131 -1 -99
-3 -100 -3 -51 -14 l49 -12 1 -217 1 -218 -175 -3 c-96 -1 -29 -3 150 -3 179
0 293 2 255 3 l-71 4 3 197 3 197 53 -3 c90 -6 84 3 84 -140 0 -70 1 -157 2
-194 l1 -68 53 2 52 2 -45 3 -45 4 3 190 3 191 22 -6 c12 -3 37 -6 55 -6 l32
0 1 -167 c1 -93 4 -179 8 -193 7 -24 7 -24 14 9 4 18 7 104 7 190 l0 156 71
-3 71 -4 -2 -106 c-4 -189 -1 -268 10 -252 5 8 10 93 10 188 l0 172 55 0 55 0
0 -103 c0 -57 3 -139 7 -183 10 -122 21 -61 22 122 1 147 3 161 19 161 9 0 37
1 61 2 l43 1 -70 55 c-66 50 -75 54 -133 57 l-62 3 -1 49 c-1 29 -6 51 -13 53
-9 3 -11 -10 -7 -51 l5 -56 -60 0 -61 0 0 105 c0 89 -2 105 -16 105 -13 0 -14
-13 -8 -105 l7 -105 -74 0 -74 0 0 167 c0 120 -3 167 -12 170 -9 3 -13 -36
-15 -150 -2 -86 0 -153 5 -150 4 2 7 -5 7 -16 0 -19 -6 -21 -60 -21 l-60 0 0
206 c0 122 -4 213 -10 225 -9 15 -20 19 -58 17 l-47 -2 47 -3z m-21 -499 l39
-7 0 -181 c0 -99 3 -191 6 -203 6 -22 4 -23 -57 -23 l-64 0 3 216 c2 190 5
215 18 210 9 -3 33 -9 55 -12z"/>
<path d="M1999 1970 c-99 -17 -198 -91 -238 -180 -22 -49 -28 -141 -11 -184 7
-18 5 -35 -5 -60 -21 -51 -17 -59 5 -10 17 38 21 42 68 48 71 9 159 57 235
126 80 74 107 115 107 166 0 77 -59 111 -161 94z"/>
<path d="M13763 1930 c-29 -12 -40 -37 -36 -84 12 -131 178 -308 331 -352 49
-14 162 -34 162 -28 0 22 -51 155 -77 204 -86 156 -292 297 -380 260z"/>
<path d="M14671 1895 c-68 -19 -109 -44 -156 -96 -49 -55 -66 -98 -66 -172 -1
-42 -6 -69 -18 -87 -25 -36 -33 -50 -27 -50 2 0 14 16 26 34 l21 35 87 -1 c75
0 98 4 167 31 183 72 262 171 208 261 -9 16 -27 33 -39 39 -42 19 -145 22
-203 6z"/>
<path d="M1541 1774 c0 -11 3 -14 6 -6 3 7 2 16 -1 19 -3 4 -6 -2 -5 -13z"/>
<path d="M1015 1768 c-70 -42 -53 -119 49 -219 106 -104 247 -155 404 -147
l92 5 32 -48 c17 -27 33 -49 35 -49 7 0 -20 45 -47 80 -15 19 -44 62 -64 95
-67 111 -195 221 -310 264 -69 26 -164 35 -191 19z"/>
<path d="M1551 1734 c0 -11 3 -14 6 -6 3 7 2 16 -1 19 -3 4 -6 -2 -5 -13z"/>
<path d="M1561 1694 c0 -11 3 -14 6 -6 3 7 2 16 -1 19 -3 4 -6 -2 -5 -13z"/>
<path d="M1571 1654 c0 -11 3 -14 6 -6 3 7 2 16 -1 19 -3 4 -6 -2 -5 -13z"/>
<path d="M1581 1614 c0 -11 3 -14 6 -6 3 7 2 16 -1 19 -3 4 -6 -2 -5 -13z"/>
<path d="M1611 1484 c0 -11 3 -14 6 -6 3 7 2 16 -1 19 -3 4 -6 -2 -5 -13z"/>
<path d="M1721 1474 c0 -11 3 -14 6 -6 3 7 2 16 -1 19 -3 4 -6 -2 -5 -13z"/>
<path d="M14385 1469 c-4 -6 -5 -12 -2 -15 2 -3 7 2 10 11 7 17 1 20 -8 4z"/>
<path d="M1621 1444 c0 -11 3 -14 6 -6 3 7 2 16 -1 19 -3 4 -6 -2 -5 -13z"/>
<path d="M1712 1430 c0 -14 2 -19 5 -12 2 6 2 18 0 25 -3 6 -5 1 -5 -13z"/>
<path d="M3060 1273 c0 -98 4 -174 10 -178 15 -9 18 314 3 334 -10 13 -12 -19
-13 -156z"/>
<path d="M14356 1405 c-9 -26 -7 -32 5 -12 6 10 9 21 6 23 -2 3 -7 -2 -11 -11z"/>
<path d="M1631 1394 c0 -11 3 -14 6 -6 3 7 2 16 -1 19 -3 4 -6 -2 -5 -13z"/>
<path d="M1703 1355 c0 -27 2 -38 4 -22 2 15 2 37 0 50 -2 12 -4 0 -4 -28z"/>
<path d="M14251 1374 c0 -11 3 -14 6 -6 3 7 2 16 -1 19 -3 4 -6 -2 -5 -13z"/>
<path d="M1641 1354 c0 -11 3 -14 6 -6 3 7 2 16 -1 19 -3 4 -6 -2 -5 -13z"/>
<path d="M3191 1268 c2 -94 14 -186 22 -167 13 27 4 222 -10 227 -10 3 -13
-13 -12 -60z"/>
<path d="M14276 1322 c-2 -4 -1 -41 3 -82 l8 -75 2 83 c1 78 -1 92 -13 74z"/>
<path d="M1650 1304 c0 -8 -4 -13 -9 -10 -4 3 1 -19 13 -48 12 -30 22 -53 24
-51 7 7 -12 84 -20 79 -5 -3 -6 5 -2 20 3 14 3 26 0 26 -3 0 -6 -7 -6 -16z"/>
<path d="M14321 1284 c0 -11 3 -14 6 -6 3 7 2 16 -1 19 -3 4 -6 -2 -5 -13z"/>
<path d="M14311 1244 c0 -11 3 -14 6 -6 3 7 2 16 -1 19 -3 4 -6 -2 -5 -13z"/>
<path d="M3360 1153 c0 -27 5 -55 10 -63 7 -11 10 3 10 48 0 35 -4 62 -10 62
-5 0 -10 -21 -10 -47z"/>
<path d="M1698 1163 c-4 -72 -3 -85 3 -89 4 -2 7 23 8 56 1 60 -8 85 -11 33z"/>
<path d="M6720 1088 c0 -4 243 -8 540 -8 297 0 540 3 540 8 0 4 -243 7 -540 8
-297 0 -540 -3 -540 -8z"/>
<path d="M10100 1090 c0 -6 45 -10 115 -10 70 0 115 4 115 10 0 6 -45 10 -115
10 -70 0 -115 -4 -115 -10z"/>
<path d="M2658 1083 c12 -2 30 -2 40 0 9 3 -1 5 -23 4 -22 0 -30 -2 -17 -4z"/>
<path d="M2818 1083 c7 -3 16 -2 19 1 4 3 -2 6 -13 5 -11 0 -14 -3 -6 -6z"/>
<path d="M3708 1083 c12 -2 32 -2 45 0 12 2 2 4 -23 4 -25 0 -35 -2 -22 -4z"/>
<path d="M4158 1083 c18 -2 45 -2 60 0 15 2 0 4 -33 4 -33 0 -45 -2 -27 -4z"/>
<path d="M4323 1083 c15 -2 37 -2 50 0 12 2 0 4 -28 4 -27 0 -38 -2 -22 -4z"/>
<path d="M15258 1083 c34 -2 90 -2 125 0 34 2 6 3 -63 3 -69 0 -97 -1 -62 -3z"/>
<path d="M16918 1083 c17 -2 47 -2 65 0 17 2 3 4 -33 4 -36 0 -50 -2 -32 -4z"/>
<path d="M17428 1083 c7 -3 16 -2 19 1 4 3 -2 6 -13 5 -11 0 -14 -3 -6 -6z"/>
<path d="M17958 1083 c7 -3 16 -2 19 1 4 3 -2 6 -13 5 -11 0 -14 -3 -6 -6z"/>
<path d="M18073 1083 c15 -2 37 -2 50 0 12 2 0 4 -28 4 -27 0 -38 -2 -22 -4z"/>
</g>
</svg>
